# xmcd
#
# Track frame offsets:
#	150
#	21423
#	38035
#	59808
#	77502
#	99113
#	115974
#	134141
#	153509
#	167904
#	183954
#	202703
#	223645
#	241236
#	257936
#
# Disc length: 3685 seconds
#
# Revision: 0
# Processed by: cddbd v1.5.2PL0 Copyright (c) Steve Scherf et al.
# Submitted via: audiograbber 1.83.01
#
DISCID=d00e630f
DTITLE=Chartbuster Karaoke -  Essential 8 Disk 9
DYEAR=1900
DGENRE=Karaoke
TTITLE0=Rascal Flatts - Life Is A Highway
TTITLE1=Kenny Chesney - Summertime
TTITLE2=Carrie Underwood - Wasted
TTITLE3=Dierks Bentley - Settle For A Slowdown
TTITLE4=Sara Evans - You'll Always Be My Baby
TTITLE5=Heartland - I Loved Her First
TTITLE6=Keith Urban - Stupid Boy
TTITLE7=Toni Braxton - I Don't Want To
TTITLE8=Toby Keith - Get Drunk And Be Somebody
TTITLE9=Jason Aldean - Amarillo Sky
TTITLE10=Taylor Swift - Tim McGraw
TTITLE11=Jason Michael Carroll - Alyssa Lies
TTITLE12=Alan Jackson - Like Red On A Rose
TTITLE13=The Wreckers - Leave The Pieces
TTITLE14=Joe Nichols - I'll Wait For You
EXTD=
EXTT0=
EXTT1=
EXTT2=
EXTT3=
EXTT4=
EXTT5=
EXTT6=
EXTT7=
EXTT8=
EXTT9=
EXTT10=
EXTT11=
EXTT12=
EXTT13=
EXTT14=
PLAYORDER=
